HIERARCHY
ROOT mixamorig:Hips
{
	OFFSET -0.000008 104.274872 1.554316
	CHANNELS 6 Xposition Yposition Zposition Xrotation Yrotation Zrotation
	JOINT mixamorig:Spine
	{
		OFFSET -0.000005 10.181595 0.131519
		CHANNELS 6 Xposition Yposition Zposition Xrotation Yrotation Zrotation
		JOINT mixamorig:Spine1
		{
			OFFSET -0.000000 9.893959 -1.470707
			CHANNELS 6 Xposition Yposition Zposition Xrotation Yrotation Zrotation
			JOINT mixamorig:Spine2
			{
				OFFSET -0.000000 9.220757 -1.370641
				CHANNELS 6 Xposition Yposition Zposition Xrotation Yrotation Zrotation
				JOINT mixamorig:Neck
				{
					OFFSET 0.000001 16.740417 -2.049036
					CHANNELS 6 Xposition Yposition Zposition Xrotation Yrotation Zrotation
					JOINT mixamorig:Head
					{
						OFFSET 0.000000 9.617874 1.685006
						CHANNELS 6 Xposition Yposition Zposition Xrotation Yrotation Zrotation
						JOINT mixamorig:HeadTop_End
						{
							OFFSET 0.000002 22.037354 7.501101
							CHANNELS 6 Xposition Yposition Zposition Xrotation Yrotation Zrotation
							End Site
							{
								OFFSET 0.000168 2310.654297 -282.823242
							}
						}
					}
				}
				JOINT mixamorig:RightShoulder
				{
					OFFSET -4.569970 11.014908 -2.160885
					CHANNELS 6 Xposition Yposition Zposition Xrotation Yrotation Zrotation
					JOINT mixamorig:RightArm
					{
						OFFSET -10.592851 -0.524811 -2.232101
						CHANNELS 6 Xposition Yposition Zposition Xrotation Yrotation Zrotation
						JOINT mixamorig:RightForeArm
						{
							OFFSET -27.841511 0.000031 -0.000004
							CHANNELS 6 Xposition Yposition Zposition Xrotation Yrotation Zrotation
							JOINT mixamorig:RightHand
							{
								OFFSET -28.328831 -0.000015 0.000015
								CHANNELS 6 Xposition Yposition Zposition Xrotation Yrotation Zrotation
								JOINT mixamorig:RightHandThumb1
								{
									OFFSET -2.464806 -1.573990 2.681852
									CHANNELS 6 Xposition Yposition Zposition Xrotation Yrotation Zrotation
									JOINT mixamorig:RightHandThumb2
									{
										OFFSET -3.215179 -1.872803 1.924282
										CHANNELS 6 Xposition Yposition Zposition Xrotation Yrotation Zrotation
										JOINT mixamorig:RightHandThumb3
										{
											OFFSET -2.654831 -1.527969 1.512609
											CHANNELS 6 Xposition Yposition Zposition Xrotation Yrotation Zrotation
											JOINT mixamorig:RightHandThumb4
											{
												OFFSET -2.018814 -1.152008 1.108052
												CHANNELS 6 Xposition Yposition Zposition Xrotation Yrotation Zrotation
												End Site
												{
													OFFSET -188.809540 -114.533607 132.431396
												}
											}
										}
									}
								}
								JOINT mixamorig:RightHandIndex1
								{
									OFFSET -9.108284 -0.517868 2.259835
									CHANNELS 6 Xposition Yposition Zposition Xrotation Yrotation Zrotation
									JOINT mixamorig:RightHandIndex2
									{
										OFFSET -3.699989 0.000000 0.001215
										CHANNELS 6 Xposition Yposition Zposition Xrotation Yrotation Zrotation
										JOINT mixamorig:RightHandIndex3
										{
											OFFSET -2.850006 0.000031 -0.000522
											CHANNELS 6 Xposition Yposition Zposition Xrotation Yrotation Zrotation
											JOINT mixamorig:RightHandIndex4
											{
												OFFSET -2.772186 -0.000015 -0.000020
												CHANNELS 6 Xposition Yposition Zposition Xrotation Yrotation Zrotation
												End Site
												{
													OFFSET -277.218445 0.000000 -0.050231
												}
											}
										}
									}
								}
								JOINT mixamorig:RightHandMiddle1
								{
									OFFSET -9.532516 -0.000031 -0.000023
									CHANNELS 6 Xposition Yposition Zposition Xrotation Yrotation Zrotation
									JOINT mixamorig:RightHandMiddle2
									{
										OFFSET -3.700005 -0.000015 0.003713
										CHANNELS 6 Xposition Yposition Zposition Xrotation Yrotation Zrotation
										JOINT mixamorig:RightHandMiddle3
										{
											OFFSET -2.949974 0.000015 -0.002054
											CHANNELS 6 Xposition Yposition Zposition Xrotation Yrotation Zrotation
											JOINT mixamorig:RightHandMiddle4
											{
												OFFSET -2.946640 0.000000 -0.000156
												CHANNELS 6 Xposition Yposition Zposition Xrotation Yrotation Zrotation
												End Site
												{
													OFFSET -294.664337 0.000000 -0.113670
												}
											}
										}
									}
								}
								JOINT mixamorig:RightHandRing1
								{
									OFFSET -9.103600 -0.043076 -1.865134
									CHANNELS 6 Xposition Yposition Zposition Xrotation Yrotation Zrotation
									JOINT mixamorig:RightHandRing2
									{
										OFFSET -3.379288 0.000000 -0.001055
										CHANNELS 6 Xposition Yposition Zposition Xrotation Yrotation Zrotation
										JOINT mixamorig:RightHandRing3
										{
											OFFSET -2.889687 -0.000015 0.000379
											CHANNELS 6 Xposition Yposition Zposition Xrotation Yrotation Zrotation
											JOINT mixamorig:RightHandRing4
											{
												OFFSET -2.638809 -0.000015 0.000941
												CHANNELS 6 Xposition Yposition Zposition Xrotation Yrotation Zrotation
												End Site
												{
													OFFSET -263.880371 0.000000 0.516020
												}
											}
										}
									}
								}
								JOINT mixamorig:RightHandPinky1
								{
									OFFSET -8.076683 -0.486710 -3.806280
									CHANNELS 6 Xposition Yposition Zposition Xrotation Yrotation Zrotation
									JOINT mixamorig:RightHandPinky2
									{
										OFFSET -3.600014 -0.000015 -0.003747
										CHANNELS 6 Xposition Yposition Zposition Xrotation Yrotation Zrotation
										JOINT mixamorig:RightHandPinky3
										{
											OFFSET -2.099983 0.000000 -0.005739
											CHANNELS 6 Xposition Yposition Zposition Xrotation Yrotation Zrotation
											JOINT mixamorig:RightHandPinky4
											{
												OFFSET -2.115768 -0.000031 -0.003680
												CHANNELS 6 Xposition Yposition Zposition Xrotation Yrotation Zrotation
												End Site
												{
													OFFSET -211.577087 0.000000 -0.350686
												}
											}
										}
									}
								}
							}
						}
					}
				}
				JOINT mixamorig:LeftShoulder
				{
					OFFSET 4.570447 11.014725 -2.160855
					CHANNELS 6 Xposition Yposition Zposition Xrotation Yrotation Zrotation
					JOINT mixamorig:LeftArm
					{
						OFFSET 10.592371 -0.524597 -2.232119
						CHANNELS 6 Xposition Yposition Zposition Xrotation Yrotation Zrotation
						JOINT mixamorig:LeftForeArm
						{
							OFFSET 27.841532 -0.000031 0.000026
							CHANNELS 6 Xposition Yposition Zposition Xrotation Yrotation Zrotation
							JOINT mixamorig:LeftHand
							{
								OFFSET 28.328846 -0.000061 0.000022
								CHANNELS 6 Xposition Yposition Zposition Xrotation Yrotation Zrotation
								JOINT mixamorig:LeftHandThumb1
								{
									OFFSET 2.466141 -1.576172 2.681732
									CHANNELS 6 Xposition Yposition Zposition Xrotation Yrotation Zrotation
									JOINT mixamorig:LeftHandThumb2
									{
										OFFSET 3.217812 -1.872070 1.916482
										CHANNELS 6 Xposition Yposition Zposition Xrotation Yrotation Zrotation
										JOINT mixamorig:LeftHandThumb3
										{
											OFFSET 2.656029 -1.528778 1.514513
											CHANNELS 6 Xposition Yposition Zposition Xrotation Yrotation Zrotation
											JOINT mixamorig:LeftHandThumb4
											{
												OFFSET 2.020889 -1.154053 1.115139
												CHANNELS 6 Xposition Yposition Zposition Xrotation Yrotation Zrotation
												End Site
												{
													OFFSET 190.885437 -115.081749 130.048782
												}
											}
										}
									}
								}
								JOINT mixamorig:LeftHandIndex1
								{
									OFFSET 9.109314 -0.518021 2.259871
									CHANNELS 6 Xposition Yposition Zposition Xrotation Yrotation Zrotation
									JOINT mixamorig:LeftHandIndex2
									{
										OFFSET 3.699989 0.000000 -0.000322
										CHANNELS 6 Xposition Yposition Zposition Xrotation Yrotation Zrotation
										JOINT mixamorig:LeftHandIndex3
										{
											OFFSET 2.850006 0.000000 0.000352
											CHANNELS 6 Xposition Yposition Zposition Xrotation Yrotation Zrotation
											JOINT mixamorig:LeftHandIndex4
											{
												OFFSET 2.774864 -0.000031 -0.000027
												CHANNELS 6 Xposition Yposition Zposition Xrotation Yrotation Zrotation
												End Site
												{
													OFFSET 277.486267 0.000000 -0.009857
												}
											}
										}
									}
								}
								JOINT mixamorig:LeftHandMiddle1
								{
									OFFSET 9.533394 0.000061 0.000044
									CHANNELS 6 Xposition Yposition Zposition Xrotation Yrotation Zrotation
									JOINT mixamorig:LeftHandMiddle2
									{
										OFFSET 3.699989 -0.000015 -0.000231
										CHANNELS 6 Xposition Yposition Zposition Xrotation Yrotation Zrotation
										JOINT mixamorig:LeftHandMiddle3
										{
											OFFSET 2.949997 -0.000015 -0.000059
											CHANNELS 6 Xposition Yposition Zposition Xrotation Yrotation Zrotation
											JOINT mixamorig:LeftHandMiddle4
											{
												OFFSET 2.952896 0.000031 0.000063
												CHANNELS 6 Xposition Yposition Zposition Xrotation Yrotation Zrotation
												End Site
												{
													OFFSET 295.289337 0.000000 0.022810
												}
											}
										}
									}
								}
								JOINT mixamorig:LeftHandRing1
								{
									OFFSET 9.104523 -0.042999 -1.865074
									CHANNELS 6 Xposition Yposition Zposition Xrotation Yrotation Zrotation
									JOINT mixamorig:LeftHandRing2
									{
										OFFSET 3.150009 -0.000031 0.000043
										CHANNELS 6 Xposition Yposition Zposition Xrotation Yrotation Zrotation
										JOINT mixamorig:LeftHandRing3
										{
											OFFSET 2.949982 -0.000015 0.000040
											CHANNELS 6 Xposition Yposition Zposition Xrotation Yrotation Zrotation
											JOINT mixamorig:LeftHandRing4
											{
												OFFSET 2.644348 0.000000 0.000057
												CHANNELS 6 Xposition Yposition Zposition Xrotation Yrotation Zrotation
												End Site
												{
													OFFSET 264.434631 0.000000 0.012105
												}
											}
										}
									}
								}
								JOINT mixamorig:LeftHandPinky1
								{
									OFFSET 8.077789 -0.486847 -3.806259
									CHANNELS 6 Xposition Yposition Zposition Xrotation Yrotation Zrotation
									JOINT mixamorig:LeftHandPinky2
									{
										OFFSET 3.599953 0.000031 0.014727
										CHANNELS 6 Xposition Yposition Zposition Xrotation Yrotation Zrotation
										JOINT mixamorig:LeftHandPinky3
										{
											OFFSET 2.100021 0.000015 0.007705
											CHANNELS 6 Xposition Yposition Zposition Xrotation Yrotation Zrotation
											JOINT mixamorig:LeftHandPinky4
											{
												OFFSET 2.125504 0.000031 0.007517
												CHANNELS 6 Xposition Yposition Zposition Xrotation Yrotation Zrotation
												End Site
												{
													OFFSET 212.550781 0.000000 0.625752
												}
											}
										}
									}
								}
							}
						}
					}
				}
			}
		}
	}
	JOINT mixamorig:RightUpLeg
	{
		OFFSET -8.207787 -6.751648 -1.599560
		CHANNELS 6 Xposition Yposition Zposition Xrotation Yrotation Zrotation
		JOINT mixamorig:RightLeg
		{
			OFFSET -0.000002 -44.370117 0.345942
			CHANNELS 6 Xposition Yposition Zposition Xrotation Yrotation Zrotation
			JOINT mixamorig:RightFoot
			{
				OFFSET 0.000003 -44.423679 -3.043532
				CHANNELS 6 Xposition Yposition Zposition Xrotation Yrotation Zrotation
				JOINT mixamorig:RightToeBase
				{
					OFFSET -0.000002 -8.728671 10.710558
					CHANNELS 6 Xposition Yposition Zposition Xrotation Yrotation Zrotation
					JOINT mixamorig:RightToe_End
					{
						OFFSET -0.000001 -0.000679 9.278119
						CHANNELS 6 Xposition Yposition Zposition Xrotation Yrotation Zrotation
						End Site
						{
							OFFSET 0.000000 -0.067690 927.812134
						}
					}
				}
			}
		}
	}
	JOINT mixamorig:LeftUpLeg
	{
		OFFSET 8.207793 -6.751686 -1.599556
		CHANNELS 6 Xposition Yposition Zposition Xrotation Yrotation Zrotation
		JOINT mixamorig:LeftLeg
		{
			OFFSET -0.000004 -44.370014 0.346954
			CHANNELS 6 Xposition Yposition Zposition Xrotation Yrotation Zrotation
			JOINT mixamorig:LeftFoot
			{
				OFFSET -0.000001 -44.423672 -3.044401
				CHANNELS 6 Xposition Yposition Zposition Xrotation Yrotation Zrotation
				JOINT mixamorig:LeftToeBase
				{
					OFFSET -0.000002 -8.728669 10.710558
					CHANNELS 6 Xposition Yposition Zposition Xrotation Yrotation Zrotation
					JOINT mixamorig:LeftToe_End
					{
						OFFSET -0.000003 -0.000679 9.278133
						CHANNELS 6 Xposition Yposition Zposition Xrotation Yrotation Zrotation
						End Site
						{
							OFFSET 0.000000 -0.068021 927.813477
						}
					}
				}
			}
		}
	}
}
MOTION
Frames: 3
Frame Time: 0.033333
0.000006 104.270477 1.554256 0.000010 0.000003 -0.000113 -0.000005 10.181587 0.131522 0.000001 -0.000003 0.000084 -0.000000 9.893967 -1.470711 0.000001 0.000000 -0.000000 -0.000000 9.220802 -1.370642 0.000000 -0.000000 -0.000000 0.000001 16.740433 -2.049030 0.000000 -0.000000 -0.000000 0.000000 9.617859 1.685014 0.000000 0.000000 0.000000 0.000002 22.037384 7.501101 0.000000 -0.000000 0.000000 -4.569968 11.014880 -2.160881 0.000008 0.000001 -0.000038 -10.592875 -0.524765 -2.231892 74.399687 28.440870 -21.776183 -27.841499 0.000023 0.000548 -45.506306 109.515704 61.387438 -28.328804 0.000007 0.000035 -0.000321 -0.000046 0.000006 -2.464419 -1.573719 2.682281 -52.692444 -168.613888 -23.437169 -3.215287 -1.872570 1.924644 151.836512 31.391440 4.792268 -2.654951 -1.527881 1.513067 144.639323 27.447831 -36.388120 -2.018830 -1.152014 1.108064 -0.000003 -0.000003 0.000000 -9.108373 -0.517548 2.260109 97.055690 16.156737 -18.298633 -3.700069 0.000311 0.001487 92.978689 13.835881 -14.541913 -2.850070 0.000369 -0.000286 92.619544 11.164496 -11.682455 -2.772159 0.000001 -0.000020 0.000000 -0.000000 0.000001 -9.532587 0.000263 0.000249 95.379685 16.532971 -18.293758 -3.700079 0.000328 0.003987 95.230261 12.867108 -13.982482 -2.950054 0.000345 -0.001809 97.386709 11.717510 -13.312905 -2.946633 0.000015 -0.000154 0.000000 0.000000 0.000000 -9.103698 -0.042777 -1.864853 95.474536 18.038528 -19.766364 -3.379361 0.000327 -0.000793 95.782359 8.820289 -9.773254 -2.889758 0.000356 0.000663 101.752299 6.030716 -7.466310 -2.638802 -0.000005 0.000939 0.000000 0.000002 0.000003 -8.076750 -0.486405 -3.805991 93.310650 20.027392 -21.030079 -3.600041 0.000286 -0.003495 95.713128 7.706662 -8.125089 -2.100011 0.000325 -0.005471 97.221077 3.361269 -3.573082 -2.115768 -0.000050 -0.003677 0.000002 -0.000002 -0.000003 4.570446 11.014691 -2.160851 -0.000018 0.000010 -0.000021 10.592499 -0.524549 -2.232373 50.394734 -63.609839 32.532836 27.841722 -0.000063 -0.000089 241.194689 -71.001531 259.317421 28.328838 -0.000027 0.000027 0.000020 -0.000087 -0.000000 2.466148 -1.576163 2.681866 107.632047 139.623697 -153.286357 3.217788 -1.872041 1.916502 235.854847 52.245452 68.807797 2.655808 -1.528816 1.514637 -210.807669 32.643339 165.111545 2.020883 -1.154054 1.115140 -0.000000 -0.000000 0.000003 9.109305 -0.518038 2.259929 -4.148429 -166.560979 -34.276437 3.700077 0.000143 -0.000424 -267.320354 -24.732796 25.897941 2.850019 0.000045 0.000255 -319.439314 -17.715911 6.591197 2.774877 -0.000048 -0.000027 0.000000 -0.000000 0.000001 9.533550 0.000279 0.000073 164.457240 -8.144809 55.038030 3.700049 0.000142 -0.000392 71.416909 -7.550702 5.429396 2.950008 0.000002 -0.000100 15.304444 -7.053009 0.949277 2.952872 -0.000051 0.000050 -0.000001 0.000000 0.000000 9.104645 -0.042710 -1.865073 161.377808 -6.667706 39.131339 3.149982 0.000129 -0.000135 51.713719 9.535558 -4.628943 2.949989 0.000028 0.000019 3.050582 3.158001 -0.084111 2.644322 0.000012 0.000059 0.000001 -0.000001 -0.000002 8.077860 -0.486527 -3.806270 157.911160 -4.051489 23.356797 3.599914 0.000078 0.014592 36.935440 18.425866 -6.139775 2.099990 -0.000050 0.007671 2.419425 13.999108 -0.338433 2.125499 -0.000015 0.007513 0.000001 -0.000002 -0.000001 -8.207786 -6.751667 -1.599560 -0.077001 -0.000003 0.000080 -0.000002 -44.370110 0.345938 0.153719 -0.000000 -0.000000 0.000000 -44.423679 -3.043532 -0.076700 0.000000 -0.000002 -0.000006 -8.728667 10.710559 -0.000009 -0.000000 -0.000000 -0.000001 -0.000679 9.278123 0.000000 -0.000000 -0.000000 8.207792 -6.751710 -1.599556 -0.074518 -0.000003 0.000081 -0.000002 -44.370014 0.346960 0.148822 0.000002 0.000000 -0.000001 -44.423664 -3.044403 -0.074314 0.000000 -0.000002 -0.000004 -8.728671 10.710558 0.000007 -0.000000 -0.000000 0.000000 -0.000680 9.278137 -0.000000 0.000000 -0.000001 
0.000006 104.270477 1.554256 0.000010 0.000003 -0.000113 -0.000005 10.181587 0.131522 0.000001 -0.000003 0.000084 -0.000000 9.893967 -1.470711 0.000001 0.000000 -0.000000 -0.000000 9.220802 -1.370642 0.000000 -0.000000 -0.000000 0.000001 16.740433 -2.049030 0.000000 -0.000000 -0.000000 0.000000 9.617859 1.685014 0.000000 0.000000 0.000000 0.000002 22.037384 7.501101 0.000000 -0.000000 0.000000 -4.569968 11.014880 -2.160881 0.000008 0.000001 -0.000038 -10.592878 -0.524766 -2.231905 75.248501 29.200377 -22.705302 -27.841507 0.000006 0.000553 -45.353064 109.521858 61.204506 -28.328819 0.000019 0.000032 -0.000317 -0.000042 0.000006 -2.464391 -1.573743 2.682312 -51.195878 -165.399082 -18.733010 -3.215271 -1.872578 1.924631 151.435580 31.625907 6.867282 -2.654947 -1.527884 1.513070 144.374790 27.520449 -36.087585 -2.018826 -1.152013 1.108058 -0.000002 -0.000001 0.000002 -9.108357 -0.517550 2.260109 97.081809 16.350778 -18.525396 -3.700080 0.000318 0.001505 92.980813 14.109850 -14.830511 -2.850083 0.000370 -0.000279 92.601034 11.437437 -11.964063 -2.772177 0.000002 -0.000019 0.000003 -0.000001 -0.000001 -9.532567 0.000263 0.000247 95.009168 16.384391 -18.015573 -3.700057 0.000331 0.003980 94.954991 12.718360 -13.754212 -2.950057 0.000343 -0.001803 97.083161 11.671265 -13.190443 -2.946629 0.000012 -0.000155 -0.000002 0.000000 -0.000001 -9.103685 -0.042756 -1.864867 94.978603 18.033958 -19.593692 -3.379325 0.000315 -0.000791 96.002769 8.616603 -9.584966 -2.889740 0.000355 0.000642 101.914496 6.031764 -7.489162 -2.638816 -0.000004 0.000941 -0.000000 0.000005 0.000002 -8.076750 -0.486396 -3.805989 93.486234 20.166463 -21.240328 -3.600034 0.000292 -0.003482 95.966965 7.462538 -7.891776 -2.100005 0.000327 -0.005469 97.557252 3.243796 -3.460648 -2.115757 -0.000043 -0.003680 -0.000000 -0.000000 -0.000002 4.570446 11.014691 -2.160851 -0.000018 0.000010 -0.000021 10.592492 -0.524538 -2.232381 53.683023 -59.260142 32.114446 27.841743 -0.000073 -0.000107 231.531556 -74.576220 244.739939 28.328831 -0.000011 0.000034 0.000023 -0.000089 0.000000 2.466146 -1.576160 2.681873 100.186676 135.564843 -147.908402 3.217756 -1.872043 1.916533 215.315580 57.458789 90.900877 2.655749 -1.528792 1.514628 -219.999259 27.932960 181.923537 2.020880 -1.154073 1.115144 0.000000 0.000000 0.000001 9.109441 -0.517765 2.259851 -28.228996 -167.864343 -134.216072 3.700045 0.000028 -0.000394 -307.432224 -31.543617 15.893229 2.850015 0.000008 0.000349 -349.771720 -19.349801 1.747970 2.774878 -0.000028 -0.000025 0.000002 -0.000002 0.000001 9.533486 0.000358 0.000010 149.570884 -6.001778 21.790069 3.700023 0.000046 -0.000309 42.669715 -13.872227 5.439631 2.950036 -0.000052 -0.000066 6.056699 -9.267941 0.491712 2.952873 -0.000029 0.000062 -0.000002 0.000000 -0.000003 9.104598 -0.042654 -1.865094 153.211252 -4.225605 17.620502 3.150004 0.000049 -0.000085 32.365449 6.824566 -1.982292 2.949975 -0.000021 0.000033 -0.335699 2.476970 0.007220 2.644331 0.000030 0.000053 -0.000001 -0.000001 0.000001 8.077761 -0.486470 -3.806266 159.560732 2.198058 -9.792719 3.599921 0.000034 0.014617 21.507654 23.535871 -4.545663 2.099983 -0.000035 0.007663 1.834667 21.444023 -0.417923 2.125503 0.000016 0.007513 -0.000002 -0.000000 0.000000 -8.207786 -6.751667 -1.599560 -0.077001 -0.000003 0.000080 -0.000002 -44.370110 0.345938 0.153719 -0.000000 -0.000000 0.000000 -44.423679 -3.043532 -0.076700 0.000000 -0.000002 -0.000006 -8.728667 10.710559 -0.000009 -0.000000 -0.000000 -0.000001 -0.000679 9.278123 0.000000 -0.000000 -0.000000 8.207792 -6.751710 -1.599556 -0.074518 -0.000003 0.000081 -0.000002 -44.370014 0.346960 0.148822 0.000002 0.000000 -0.000001 -44.423664 -3.044403 -0.074314 0.000000 -0.000002 -0.000004 -8.728671 10.710558 0.000007 -0.000000 -0.000000 0.000000 -0.000680 9.278137 -0.000000 0.000000 -0.000001 
0.000006 104.270477 1.554256 0.000010 0.000003 -0.000113 -0.000005 10.181587 0.131522 0.000001 -0.000003 0.000084 -0.000000 9.893967 -1.470711 0.000001 0.000000 -0.000000 -0.000000 9.220802 -1.370642 0.000000 -0.000000 -0.000000 0.000001 16.740433 -2.049030 0.000000 -0.000000 -0.000000 0.000000 9.617859 1.685014 0.000000 0.000000 0.000000 0.000002 22.037384 7.501101 0.000000 -0.000000 0.000000 -4.569968 11.014880 -2.160881 0.000008 0.000001 -0.000038 -10.592878 -0.524753 -2.231911 75.599908 26.929056 -21.041783 -27.841503 0.000007 0.000561 -45.852511 107.847526 60.272328 -28.328840 -0.000007 0.000026 -0.000319 -0.000044 0.000009 -2.464406 -1.573760 2.682296 -50.886590 -164.818106 -17.844948 -3.215277 -1.872561 1.924642 151.002492 31.490888 6.352910 -2.654972 -1.527870 1.513062 143.879438 27.652951 -35.521331 -2.018819 -1.152019 1.108070 -0.000002 -0.000000 0.000002 -9.108391 -0.517558 2.260108 96.760852 16.283656 -18.347761 -3.700069 0.000308 0.001498 92.747781 14.241662 -14.908930 -2.850095 0.000354 -0.000276 92.422268 11.652244 -12.150909 -2.772171 -0.000015 -0.000020 -0.000000 -0.000001 -0.000000 -9.532594 0.000263 0.000242 94.680984 16.125609 -17.633757 -3.700080 0.000329 0.003975 94.716815 12.915516 -13.910912 -2.950064 0.000340 -0.001780 97.035575 11.937708 -13.479937 -2.946643 0.000002 -0.000156 -0.000000 -0.000001 0.000001 -9.103696 -0.042763 -1.864848 94.706495 17.965573 -19.428422 -3.379339 0.000327 -0.000802 95.674312 9.097091 -10.060159 -2.889747 0.000343 0.000668 101.711796 6.536759 -8.082068 -2.638791 -0.000014 0.000940 -0.000000 -0.000000 -0.000001 -8.076772 -0.486401 -3.805972 93.374287 20.219757 -21.255989 -3.600029 0.000287 -0.003487 95.608469 7.875025 -8.294910 -2.100015 0.000337 -0.005451 97.294330 3.684542 -3.943684 -2.115753 -0.000044 -0.003680 -0.000003 0.000001 -0.000006 4.570446 11.014691 -2.160851 -0.000018 0.000010 -0.000021 10.592495 -0.524541 -2.232384 55.982416 -58.607551 33.221586 27.841751 -0.000054 -0.000127 224.887831 -76.617592 235.207400 28.328833 -0.000014 0.000027 0.000020 -0.000089 -0.000001 2.466118 -1.576191 2.681844 95.956638 123.610223 -141.920075 3.217666 -1.872066 1.916507 167.579402 57.980431 145.824607 2.655683 -1.528684 1.514598 -234.580689 14.519575 217.593148 2.020895 -1.154097 1.115149 0.000001 0.000006 0.000001 9.109379 -0.517689 2.259823 -27.005714 -175.715031 -162.337081 3.700073 0.000159 -0.000444 -267.777402 -23.561337 24.485183 2.850044 0.000031 0.000296 -333.683428 -18.322973 4.317944 2.774877 -0.000024 -0.000030 -0.000002 -0.000001 0.000001 9.533404 0.000394 -0.000054 135.960134 1.722890 -4.275296 3.700020 -0.000002 -0.000275 14.369646 -2.707088 0.340982 2.950012 -0.000015 0.000004 -12.140930 -4.933691 -0.525160 2.952854 -0.000029 0.000068 0.000003 -0.000001 -0.000002 9.104488 -0.042655 -1.865175 136.639095 5.495547 -13.764009 3.149993 0.000018 -0.000025 8.363906 12.418351 -0.911622 2.949984 -0.000006 0.000072 -12.487106 2.114915 0.231216 2.644329 0.000031 0.000055 -0.000000 -0.000000 -0.000002 8.077594 -0.486514 -3.806337 147.654333 15.823344 -50.584118 3.599941 0.000011 0.014691 0.935970 21.086327 -0.249178 2.099978 -0.000010 0.007695 -8.615584 18.465275 1.307097 2.125509 -0.000015 0.007515 0.000002 -0.000002 -0.000002 -8.207786 -6.751667 -1.599560 -0.077001 -0.000003 0.000080 -0.000002 -44.370110 0.345938 0.153719 -0.000000 -0.000000 0.000000 -44.423679 -3.043532 -0.076700 0.000000 -0.000002 -0.000006 -8.728667 10.710559 -0.000009 -0.000000 -0.000000 -0.000001 -0.000679 9.278123 0.000000 -0.000000 -0.000000 8.207792 -6.751710 -1.599556 -0.074518 -0.000003 0.000081 -0.000002 -44.370014 0.346960 0.148822 0.000002 0.000000 -0.000001 -44.423664 -3.044403 -0.074314 0.000000 -0.000002 -0.000004 -8.728671 10.710558 0.000007 -0.000000 -0.000000 0.000000 -0.000680 9.278137 -0.000000 0.000000 -0.000001 
